<?xml version="1.0" encoding="UTF-8"?> <svg xmlns="http://www.w3.org/2000/svg" width="293" height="63" viewBox="0 0 293 63" fill="none"> <path d="M59.6855 62.1012L62.0577 55.9244H62.9383L65.4663 62.1012H64.5352L63.8147 60.2305H61.2319L60.5535 62.1012H59.6855ZM61.4678 59.5647H63.5619L62.9172 57.8541C62.7206 57.3345 62.5745 56.9075 62.479 56.5732C62.4004 56.9693 62.2894 57.3625 62.1462 57.753L61.4678 59.5647Z" fill="black"></path> <path d="M66.5509 62.1012V55.9244H68.6786C69.159 55.9244 69.5255 55.9539 69.7783 56.0128C70.1323 56.0943 70.4342 56.2418 70.6842 56.4553C71.01 56.7305 71.253 57.0831 71.4131 57.5128C71.576 57.9398 71.6575 58.4285 71.6575 58.9791C71.6575 59.4482 71.6027 59.8639 71.4932 60.2263C71.3836 60.5886 71.2432 60.8892 71.0718 61.1279C70.9005 61.3639 70.7123 61.5507 70.5072 61.6883C70.305 61.8231 70.0592 61.9257 69.7699 61.9959C69.4834 62.0661 69.1533 62.1012 68.7798 62.1012H66.5509ZM67.3683 61.3723H68.6871C69.0944 61.3723 69.4132 61.3344 69.6435 61.2585C69.8766 61.1827 70.062 61.076 70.1997 60.9383C70.3935 60.7445 70.5438 60.4847 70.6505 60.1588C70.7601 59.8302 70.8148 59.4327 70.8148 58.9664C70.8148 58.3204 70.7081 57.8246 70.4946 57.4791C70.2839 57.1308 70.0269 56.8977 69.7236 56.7797C69.5045 56.6954 69.1519 56.6533 68.666 56.6533H67.3683V61.3723Z" fill="black"></path> <path d="M74.9836 62.1012L72.5904 55.9244H73.4752L75.0805 60.4116C75.2097 60.7712 75.3178 61.1083 75.4049 61.4229C75.5004 61.0858 75.6114 60.7487 75.7378 60.4116L77.4063 55.9244H78.2405L75.822 62.1012H74.9836Z" fill="black"></path> <path d="M79.422 62.1012V55.9244H83.8882V56.6533H80.2394V58.5451H83.6564V59.2698H80.2394V61.3723H84.0314V62.1012H79.422Z" fill="black"></path> <path d="M85.6047 62.1012V55.9244H88.3434C88.894 55.9244 89.3125 55.9805 89.599 56.0929C89.8855 56.2025 90.1144 56.3977 90.2858 56.6786C90.4571 56.9595 90.5428 57.2698 90.5428 57.6097C90.5428 58.0479 90.401 58.4173 90.1173 58.7179C89.8336 59.0184 89.3954 59.2094 88.8027 59.2909C89.019 59.3948 89.1833 59.4973 89.2956 59.5985C89.5344 59.8176 89.7605 60.0914 89.974 60.4201L91.0484 62.1012H90.0203L89.2029 60.8161C88.9642 60.4453 88.7676 60.1616 88.6131 59.965C88.4586 59.7684 88.3195 59.6308 88.1959 59.5521C88.0752 59.4735 87.9516 59.4187 87.8252 59.3878C87.7325 59.3681 87.5808 59.3583 87.3701 59.3583H86.4221V62.1012H85.6047ZM86.4221 58.6504H88.1791C88.5527 58.6504 88.8448 58.6125 89.0555 58.5367C89.2661 58.458 89.4263 58.3344 89.5358 58.1659C89.6454 57.9946 89.7001 57.8092 89.7001 57.6097C89.7001 57.3176 89.5934 57.0774 89.3799 56.8892C89.1692 56.701 88.835 56.6069 88.3771 56.6069H86.4221V58.6504Z" fill="black"></path> <path d="M93.6708 62.1012V56.6533H91.6358V55.9244H96.5317V56.6533H94.4882V62.1012H93.6708Z" fill="black"></path> <path d="M97.9449 62.1012V55.9244H98.7623V62.1012H97.9449Z" fill="black"></path> <path d="M100.361 60.1167L101.132 60.0493C101.168 60.3583 101.253 60.6125 101.385 60.8119C101.52 61.0085 101.727 61.1686 102.008 61.2922C102.289 61.413 102.605 61.4734 102.956 61.4734C103.268 61.4734 103.543 61.4271 103.782 61.3344C104.021 61.2417 104.198 61.1153 104.313 60.9552C104.431 60.7923 104.49 60.6153 104.49 60.4243C104.49 60.2305 104.434 60.0619 104.321 59.9187C104.209 59.7726 104.024 59.6504 103.765 59.5521C103.6 59.4875 103.233 59.3878 102.666 59.253C102.098 59.1153 101.701 58.9861 101.473 58.8653C101.178 58.7108 100.958 58.5198 100.812 58.2923C100.668 58.062 100.597 57.8049 100.597 57.5212C100.597 57.2095 100.685 56.9187 100.862 56.6491C101.039 56.3766 101.298 56.1701 101.638 56.0297C101.977 55.8893 102.355 55.819 102.771 55.819C103.229 55.819 103.632 55.8935 103.98 56.0423C104.331 56.1884 104.601 56.4047 104.789 56.6912C104.977 56.9777 105.078 57.3021 105.093 57.6645L104.309 57.7235C104.267 57.333 104.123 57.0381 103.879 56.8387C103.638 56.6392 103.279 56.5395 102.805 56.5395C102.31 56.5395 101.949 56.6308 101.722 56.8134C101.497 56.9932 101.385 57.2109 101.385 57.4665C101.385 57.6884 101.465 57.871 101.625 58.0142C101.782 58.1575 102.192 58.3049 102.855 58.4566C103.521 58.6055 103.977 58.7361 104.225 58.8485C104.584 59.0142 104.85 59.2249 105.021 59.4805C105.192 59.7333 105.278 60.0254 105.278 60.3569C105.278 60.6855 105.184 60.9959 104.996 61.288C104.807 61.5773 104.536 61.8035 104.182 61.9664C103.831 62.1265 103.435 62.2065 102.994 62.2065C102.435 62.2065 101.966 62.1251 101.587 61.9622C101.211 61.7993 100.914 61.5549 100.698 61.229C100.484 60.9004 100.372 60.5296 100.361 60.1167Z" fill="black"></path> <path d="M106.965 62.1012V55.9244H107.782V62.1012H106.965Z" fill="black"></path> <path d="M109.651 62.1012V55.9244H110.489L113.733 60.774V55.9244H114.517V62.1012H113.679L110.434 57.2474V62.1012H109.651Z" fill="black"></path> <path d="M119.217 59.6785V58.9538L121.833 58.9496V61.2417C121.432 61.5619 121.017 61.8035 120.59 61.9664C120.163 62.1265 119.725 62.2065 119.276 62.2065C118.669 62.2065 118.117 62.0773 117.62 61.8189C117.125 61.5577 116.752 61.1813 116.499 60.6897C116.246 60.1982 116.12 59.649 116.12 59.0423C116.12 58.4412 116.245 57.8808 116.495 57.3611C116.748 56.8387 117.11 56.451 117.582 56.1982C118.054 55.9454 118.597 55.819 119.212 55.819C119.659 55.819 120.062 55.8921 120.422 56.0381C120.784 56.1814 121.068 56.3822 121.273 56.6406C121.478 56.8991 121.634 57.2361 121.741 57.6519L121.003 57.8541C120.91 57.5395 120.795 57.2923 120.658 57.1125C120.52 56.9328 120.323 56.7895 120.068 56.6828C119.812 56.5732 119.528 56.5185 119.217 56.5185C118.843 56.5185 118.52 56.576 118.248 56.6912C117.975 56.8036 117.755 56.9524 117.586 57.1378C117.42 57.3232 117.291 57.5269 117.198 57.7488C117.041 58.1308 116.963 58.5451 116.963 58.9917C116.963 59.5423 117.057 60.0029 117.245 60.3737C117.436 60.7445 117.713 61.0198 118.075 61.1995C118.437 61.3793 118.822 61.4692 119.229 61.4692C119.583 61.4692 119.929 61.4018 120.266 61.267C120.603 61.1293 120.859 60.9833 121.033 60.8288V59.6785H119.217Z" fill="black"></path> <path d="M126.299 62.1012V55.9244H127.137L130.381 60.774V55.9244H131.165V62.1012H130.327L127.082 57.2474V62.1012H126.299Z" fill="black"></path> <path d="M132.991 62.1012V55.9244H137.457V56.6533H133.809V58.5451H137.226V59.2698H133.809V61.3723H137.601V62.1012H132.991Z" fill="black"></path> <path d="M140.733 62.1012V56.6533H138.698V55.9244H143.594V56.6533H141.55V62.1012H140.733Z" fill="black"></path> <path d="M145.947 62.1012L144.307 55.9244H145.146L146.086 59.9734C146.187 60.3976 146.274 60.8189 146.347 61.2375C146.504 60.5774 146.597 60.1968 146.625 60.0956L147.8 55.9244H148.786L149.671 59.0507C149.893 59.826 150.053 60.5549 150.151 61.2375C150.23 60.847 150.333 60.399 150.459 59.8934L151.428 55.9244H152.25L150.556 62.1012H149.768L148.466 57.3948C148.357 57.0016 148.292 56.76 148.272 56.6701C148.208 56.9538 148.147 57.1954 148.091 57.3948L146.781 62.1012H145.947Z" fill="black"></path> <path d="M153.199 59.0928C153.199 58.0676 153.475 57.2656 154.025 56.687C154.576 56.1055 155.286 55.8148 156.157 55.8148C156.727 55.8148 157.242 55.9511 157.699 56.2235C158.157 56.496 158.506 56.8766 158.744 57.3654C158.986 57.8513 159.107 58.4033 159.107 59.0212C159.107 59.6476 158.98 60.208 158.727 60.7024C158.475 61.1967 158.116 61.5717 157.653 61.8273C157.19 62.0801 156.69 62.2065 156.153 62.2065C155.572 62.2065 155.052 62.0661 154.594 61.7852C154.136 61.5043 153.789 61.1209 153.553 60.635C153.317 60.149 153.199 59.635 153.199 59.0928ZM154.042 59.1055C154.042 59.8499 154.242 60.4369 154.64 60.8667C155.042 61.2936 155.545 61.5071 156.149 61.5071C156.764 61.5071 157.27 61.2908 157.666 60.8583C158.065 60.4257 158.264 59.8119 158.264 59.017C158.264 58.5142 158.178 58.076 158.007 57.7024C157.838 57.326 157.59 57.0353 157.261 56.8302C156.935 56.6224 156.569 56.5185 156.161 56.5185C155.583 56.5185 155.084 56.7179 154.666 57.1168C154.25 57.5128 154.042 58.1757 154.042 59.1055Z" fill="black"></path> <path d="M160.608 62.1012V55.9244H163.347C163.898 55.9244 164.316 55.9805 164.603 56.0929C164.889 56.2025 165.118 56.3977 165.289 56.6786C165.461 56.9595 165.546 57.2698 165.546 57.6097C165.546 58.0479 165.405 58.4173 165.121 58.7179C164.837 59.0184 164.399 59.2094 163.806 59.2909C164.023 59.3948 164.187 59.4973 164.299 59.5985C164.538 59.8176 164.764 60.0914 164.978 60.4201L166.052 62.1012H165.024L164.207 60.8161C163.968 60.4453 163.771 60.1616 163.617 59.965C163.462 59.7684 163.323 59.6308 163.2 59.5521C163.079 59.4735 162.955 59.4187 162.829 59.3878C162.736 59.3681 162.584 59.3583 162.374 59.3583H161.426V62.1012H160.608ZM161.426 58.6504H163.183C163.556 58.6504 163.848 58.6125 164.059 58.5367C164.27 58.458 164.43 58.3344 164.539 58.1659C164.649 57.9946 164.704 57.8092 164.704 57.6097C164.704 57.3176 164.597 57.0774 164.383 56.8892C164.173 56.701 163.839 56.6069 163.381 56.6069H161.426V58.6504Z" fill="black"></path> <path d="M167.229 62.1012V55.9244H168.047V58.9875L171.114 55.9244H172.222L169.631 58.4271L172.336 62.1012H171.257L169.058 58.9749L168.047 59.9608V62.1012H167.229Z" fill="black"></path> <path d="M282.24 34.342C277.344 34.342 274.375 30.948 274.263 25.3059H276.745C276.823 29.4464 278.707 31.2084 280.156 31.5643V25.3059H282.535V28.8821C283.932 28.7259 285.391 27.1027 285.877 25.3059H288.212C287.838 27.5107 286.25 29.1426 285.13 29.8109C286.25 30.3491 288.064 31.7726 288.759 34.342H286.189C285.651 32.6233 284.314 31.2952 282.535 31.1129V34.342H282.24ZM281.007 40.4007H281.91C286.814 40.4007 289.271 40.4007 290.79 38.8817C292.3 37.354 292.3 34.8975 292.3 30.0106V29.0905C292.3 24.1949 292.3 21.7471 290.79 20.2193C289.271 18.7003 286.814 18.7003 281.91 18.7003H281.007C276.103 18.7003 273.646 18.7003 272.119 20.2193C270.591 21.7384 270.6 24.2035 270.6 29.0905V30.0106C270.6 34.9062 270.6 37.354 272.119 38.8817C273.638 40.4094 276.103 40.4007 281.007 40.4007Z" fill="#AAAEB3"></path> <path d="M95.0763 26.1537V40.404H90.9096V26.985C90.9096 24.6099 88.231 22.0567 85.6715 22.0567C81.3262 22.0567 79.7191 25.3224 79.7191 26.9256V40.4634H75.4929C75.4929 40.4634 75.4929 27.9944 75.4929 27.1037C75.4929 25.5006 73.8857 22.0567 70.0166 22.0567C66.4452 22.0567 64.3023 25.2037 64.3023 27.3412C64.3023 29.1225 64.3023 40.4634 64.3023 40.4634H60.0166V18.4942H64.2428V21.463C64.2428 21.463 66.8023 18.0785 71.2071 18.0785C76.7429 18.0785 78.7667 22.6505 78.8262 22.7693C78.8857 22.5911 81.4453 18.0192 86.5048 18.0192C91.4453 18.0785 95.0763 22.0567 95.0763 26.1537Z" fill="black"></path> <path d="M231.777 30.6664C231.837 30.3102 231.837 29.8945 231.837 29.5383C231.837 23.5413 227.134 18.1381 220.289 18.1381C214.039 18.1381 208.741 23.4225 208.741 29.5383C208.741 35.8915 214.039 41.0573 220.289 41.0573C226.36 41.0573 229.337 37.3166 230.646 34.5853L226.479 33.6352C225.17 35.654 222.848 36.9603 220.289 36.9603C216.598 36.9603 213.503 34.229 212.967 30.7258H231.777V30.6664ZM213.146 27.4007C213.979 24.6101 217.134 22.1756 220.289 22.1756C223.622 22.1756 226.539 24.3132 227.432 27.4007H213.146Z" fill="black"></path> <path d="M119.744 18.4941L106.708 47.8854H102.006L105.399 40.3446L95.9346 18.4941H100.458L107.72 35.1195L115.101 18.4941H119.744Z" fill="black"></path> <path d="M160.093 18.4942V20.6318C160.093 20.6318 157.176 17.9598 152.712 17.9598C146.343 17.9598 141.164 23.66 141.164 29.4788C141.164 35.6539 146.164 40.9978 152.712 40.9978C157.771 40.9978 160.093 38.3259 160.093 38.3259V40.404H164.319V18.4942H160.093ZM152.771 36.9008C148.307 36.9008 145.331 33.3383 145.331 29.4788C145.331 25.7381 148.724 22.0568 152.771 22.0568C156.64 22.0568 160.212 25.2037 160.212 29.4788C160.212 33.7539 157.236 36.9008 152.771 36.9008Z" fill="black"></path> <path d="M182.354 18.6129V22.4723C176.581 22.4723 172.592 26.3912 172.533 31.3194V40.404H168.307V18.4941H172.533V23.7192C172.533 23.7192 174.616 18.6129 181.283 18.6129C181.759 18.6129 182.354 18.6129 182.354 18.6129Z" fill="black"></path> <path d="M201.598 18.4944V20.3944C201.598 20.3944 198.503 18.0787 194.694 18.0787C188.443 18.0787 183.562 23.6007 183.562 29.1227C183.562 36.7822 190.11 40.2261 194.694 40.2261C199.515 40.2261 201.717 37.7323 201.717 37.7323C201.717 37.7323 201.836 38.5041 201.836 38.8604C201.836 41.7105 200.229 45.9262 194.753 45.9262C191.36 45.9262 188.503 43.5511 187.848 40.4042H183.682C184.455 45.8074 189.098 50.0231 194.753 50.0231C200.408 50.0231 205.051 45.8668 205.825 40.4042C205.884 40.0479 205.884 39.6917 205.944 39.3948V18.4944H201.598ZM194.694 35.951C190.467 35.951 187.848 32.329 187.848 29.1227C187.848 25.3226 191.301 22.3538 194.694 22.3538C197.908 22.3538 201.539 24.7289 201.539 29.1227C201.539 33.2197 198.741 35.951 194.694 35.951Z" fill="black"></path> <path d="M139.854 39.276C139.854 39.276 138.128 40.9979 134.854 40.9979C129.973 40.9979 126.7 36.9603 126.7 33.279V22.3537H122.057V18.4943H126.7V11.7848H130.926V18.4943H138.545V22.3537H130.926C130.926 22.3537 130.926 31.9133 130.926 32.8633C130.926 34.4665 132.176 36.7822 134.854 36.7822C136.997 36.7822 138.604 35.5946 138.604 35.5946L139.854 39.276Z" fill="black"></path> <path d="M249.694 39.276C249.694 39.276 247.968 40.9979 244.694 40.9979C239.813 40.9979 236.539 36.9603 236.539 33.279V22.3537H231.896V18.4943H236.539V11.7848H240.766V18.4943H248.385V22.3537H240.766C240.766 22.3537 240.766 31.9133 240.766 32.8633C240.766 34.4665 242.016 36.7822 244.694 36.7822C246.837 36.7822 248.444 35.5946 248.444 35.5946L249.694 39.276Z" fill="black"></path> <path fill-rule="evenodd" clip-rule="evenodd" d="M22.8188 7.73267C22.8188 7.73267 22.8188 7.73267 22.8188 7.73267C10.6036 7.73267 0.701172 17.6351 0.701172 29.8503C0.701172 42.0655 10.6036 51.9679 22.8188 51.9679C35.034 51.9679 44.9364 42.0655 44.9364 29.8503C44.9364 29.8503 44.9364 29.8502 44.9364 29.8502H37.5644C37.5643 37.9936 30.9627 44.595 22.8193 44.595C14.6759 44.595 8.07427 37.9934 8.07427 29.85C8.07427 21.7066 14.6756 15.1052 22.8188 15.1049V7.73267Z" fill="#FC2C38"></path> <path fill-rule="evenodd" clip-rule="evenodd" d="M37.5634 0.390625L30.1909 7.7326V17.3382L24.7858 22.7432C24.1596 22.5703 23.5 22.4779 22.8188 22.4779C18.7471 22.4779 15.4463 25.7787 15.4463 29.8505C15.4463 33.9222 18.7471 37.223 22.8188 37.223C26.8906 37.223 30.1914 33.9222 30.1914 29.8505C30.1914 29.2109 30.1099 28.5903 29.9568 27.9986L35.4777 22.4777H37.5634V22.4775H45.0092L52.3912 15.1049L37.5634 15.1049V0.390625Z" fill="#FC2C38"></path> </svg> 