<?xml version="1.0" encoding="UTF-8"?> <svg xmlns="http://www.w3.org/2000/svg" width="273" height="43" viewBox="0 0 273 43" fill="none"> <path fill-rule="evenodd" clip-rule="evenodd" d="M197.09 15.2801V27.4375H199.018V22.6752C199.365 23.1 199.812 23.4577 200.36 23.7484C200.908 24.0279 201.534 24.1676 202.238 24.1676C203.054 24.1676 203.786 23.9776 204.435 23.5975C205.083 23.2062 205.586 22.6696 205.944 21.9877C206.313 21.2945 206.497 20.512 206.497 19.64C206.497 18.768 206.313 17.9911 205.944 17.3091C205.586 16.616 205.083 16.0794 204.435 15.6993C203.786 15.3081 203.054 15.1124 202.238 15.1124C201.511 15.1124 200.868 15.2689 200.309 15.582C199.751 15.8838 199.292 16.2527 198.934 16.6887L198.532 15.2801H197.09ZM203.73 21.6691C203.227 22.1833 202.573 22.4404 201.768 22.4404C200.952 22.4404 200.287 22.1833 199.773 21.6691C199.27 21.1436 199.018 20.4673 199.018 19.64C199.018 18.8128 199.27 18.142 199.773 17.6278C200.287 17.1023 200.952 16.8396 201.768 16.8396C202.573 16.8396 203.227 17.1023 203.73 17.6278C204.233 18.142 204.485 18.8128 204.485 19.64C204.485 20.4673 204.233 21.1436 203.73 21.6691ZM208.176 15.2801V23.9999H210.105V18.8519C210.105 17.7004 210.675 17.1247 211.815 17.1247H212.922L212.754 15.2801H212.385C211.837 15.2801 211.368 15.3751 210.977 15.5652C210.597 15.7552 210.267 16.0794 209.987 16.5378L209.618 15.2801H208.176ZM215.603 23.5975C216.318 23.9776 217.123 24.1676 218.017 24.1676C218.912 24.1676 219.711 23.9776 220.415 23.5975C221.131 23.2062 221.684 22.6696 222.075 21.9877C222.478 21.2945 222.679 20.512 222.679 19.64C222.679 18.768 222.478 17.9911 222.075 17.3091C221.684 16.616 221.131 16.0794 220.415 15.6993C219.711 15.3081 218.912 15.1124 218.017 15.1124C217.123 15.1124 216.318 15.3081 215.603 15.6993C214.898 16.0794 214.345 16.616 213.943 17.3091C213.551 17.9911 213.356 18.768 213.356 19.64C213.356 20.512 213.551 21.2945 213.943 21.9877C214.345 22.6696 214.898 23.2062 215.603 23.5975ZM219.929 21.6523C219.437 22.1553 218.8 22.4069 218.017 22.4069C217.235 22.4069 216.598 22.1553 216.106 21.6523C215.614 21.138 215.368 20.4673 215.368 19.64C215.368 18.8128 215.614 18.1476 216.106 17.6445C216.598 17.1303 217.235 16.8732 218.017 16.8732C218.8 16.8732 219.437 17.1303 219.929 17.6445C220.421 18.1476 220.667 18.8128 220.667 19.64C220.667 20.4673 220.421 21.138 219.929 21.6523ZM222.008 25.6768L222.176 27.4375H223.635C224.585 27.4375 225.306 27.2084 225.798 26.75C226.29 26.3028 226.536 25.6489 226.536 24.7881V15.2801H224.607V24.7042C224.607 25.3526 224.283 25.6768 223.635 25.6768H222.008ZM224.708 13.7206C224.931 13.933 225.222 14.0392 225.58 14.0392C225.926 14.0392 226.211 13.933 226.435 13.7206C226.659 13.497 226.77 13.212 226.77 12.8654C226.77 12.5188 226.659 12.2338 226.435 12.0102C226.211 11.7866 225.926 11.6748 225.58 11.6748C225.233 11.6748 224.943 11.7866 224.708 12.0102C224.484 12.2338 224.372 12.5188 224.372 12.8654C224.372 13.212 224.484 13.497 224.708 13.7206ZM237.23 20.1599C237.253 19.9139 237.264 19.7071 237.264 19.5394C237.264 18.7121 237.068 17.9631 236.677 17.2924C236.297 16.6104 235.76 16.0794 235.067 15.6993C234.385 15.3081 233.608 15.1124 232.736 15.1124C231.864 15.1124 231.082 15.3081 230.388 15.6993C229.707 16.0794 229.17 16.616 228.779 17.3091C228.399 17.9911 228.209 18.768 228.209 19.64C228.209 20.512 228.399 21.2945 228.779 21.9877C229.17 22.6696 229.707 23.2062 230.388 23.5975C231.082 23.9776 231.864 24.1676 232.736 24.1676C233.675 24.1676 234.525 23.9496 235.285 23.5136C236.056 23.0776 236.599 22.4572 236.912 21.6523L235.101 21.3504C234.888 21.6746 234.581 21.9318 234.178 22.1218C233.787 22.3119 233.345 22.4069 232.854 22.4069C232.127 22.4069 231.529 22.2057 231.059 21.8032C230.59 21.3896 230.31 20.8418 230.221 20.1599H237.23ZM231.21 17.2924C231.646 16.957 232.155 16.7893 232.736 16.7893C233.329 16.7893 233.837 16.9626 234.262 17.3091C234.698 17.6445 235 18.0917 235.168 18.6507H230.338C230.495 18.0805 230.785 17.6278 231.21 17.2924ZM240.46 23.5975C241.153 23.9776 241.936 24.1676 242.808 24.1676C243.758 24.1676 244.619 23.9273 245.39 23.4466C246.161 22.9658 246.704 22.2839 247.017 21.4008L245.206 21.0989C245.004 21.4902 244.703 21.8088 244.3 22.0547C243.898 22.2895 243.439 22.4069 242.925 22.4069C242.143 22.4069 241.505 22.1498 241.013 21.6355C240.522 21.1213 240.276 20.4561 240.276 19.64C240.276 18.8239 240.522 18.1588 241.013 17.6445C241.505 17.1303 242.143 16.8732 242.925 16.8732C243.417 16.8732 243.859 16.9905 244.25 17.2253C244.652 17.4601 244.949 17.7675 245.139 18.1476L246.95 17.8457C246.637 16.9738 246.106 16.303 245.357 15.8335C244.619 15.3528 243.769 15.1124 242.808 15.1124C241.936 15.1124 241.153 15.3081 240.46 15.6993C239.767 16.0794 239.225 16.616 238.833 17.3091C238.453 17.9911 238.263 18.768 238.263 19.64C238.263 20.512 238.453 21.2945 238.833 21.9877C239.225 22.6696 239.767 23.2062 240.46 23.5975ZM253.393 23.9999L253.561 22.323H251.767C251.118 22.323 250.794 21.9988 250.794 21.3504V16.957H253.393V15.2801H250.794V12.7648H249.352L248.866 15.2801H247.44V16.957H248.866V21.3504C248.866 22.2112 249.112 22.8708 249.604 23.3292C250.095 23.7763 250.816 23.9999 251.767 23.9999H253.393ZM260.222 16.9604C260.297 20.7338 262.282 23.0036 265.556 23.0036H265.754V20.8441C266.944 20.966 267.838 21.8542 268.198 23.0036H269.916C269.452 21.2853 268.238 20.3332 267.49 19.9733C268.238 19.5263 269.301 18.435 269.55 16.9604H267.989C267.664 18.1621 266.688 19.2477 265.754 19.3522V16.9604H264.163V21.146C263.194 20.908 261.934 19.7295 261.882 16.9604H260.222ZM265.336 27.0556H264.732H264.677C261.434 27.0556 259.798 27.0557 258.788 26.0397C257.772 25.018 257.772 23.3809 257.772 20.1068V19.4915V19.4364C257.772 16.2046 257.772 14.5688 258.788 13.5586C259.809 12.5427 261.452 12.5427 264.732 12.5427H265.336C268.616 12.5427 270.259 12.5427 271.275 13.5586C272.285 14.5803 272.285 16.2174 272.285 19.4915V20.1068C272.285 23.3751 272.285 25.018 271.275 26.0397C270.259 27.0556 268.616 27.0556 265.336 27.0556Z" fill="#AAAEB3"></path> <path fill-rule="evenodd" clip-rule="evenodd" d="M181.424 27.0876V12.5444H182.333V27.0876H181.424Z" fill="#AAAEB3"></path> <path d="M39.8421 41.3623L41.4297 37.2427H42.019L43.7108 41.3623H43.0877L42.6055 40.1146H40.877L40.423 41.3623H39.8421ZM41.0349 39.6706H42.4363L42.0049 38.5297C41.8733 38.1831 41.7755 37.8983 41.7116 37.6754C41.659 37.9396 41.5847 38.2018 41.4889 38.4623L41.0349 39.6706Z" fill="black"></path> <path d="M44.4366 41.3623V37.2427H45.8605C46.182 37.2427 46.4273 37.2623 46.5965 37.3016C46.8334 37.356 47.0354 37.4544 47.2027 37.5968C47.4207 37.7803 47.5834 38.0155 47.6905 38.3021C47.7995 38.5868 47.8541 38.9128 47.8541 39.28C47.8541 39.5929 47.8174 39.8701 47.7441 40.1118C47.6708 40.3534 47.5768 40.5539 47.4621 40.7131C47.3475 40.8705 47.2215 40.9951 47.0843 41.0869C46.9489 41.1768 46.7844 41.2452 46.5908 41.292C46.3991 41.3389 46.1782 41.3623 45.9282 41.3623H44.4366ZM44.9836 40.8761H45.8662C46.1388 40.8761 46.3521 40.8509 46.5062 40.8002C46.6622 40.7497 46.7863 40.6785 46.8785 40.5867C47.0082 40.4574 47.1087 40.2841 47.1802 40.0668C47.2535 39.8476 47.2901 39.5825 47.2901 39.2715C47.2901 38.8407 47.2187 38.51 47.0758 38.2796C46.9348 38.0473 46.7628 37.8918 46.5599 37.8131C46.4132 37.7569 46.1773 37.7288 45.8521 37.7288H44.9836V40.8761Z" fill="black"></path> <path d="M50.0799 41.3623L48.4784 37.2427H49.0705L50.1448 40.2354C50.2313 40.4752 50.3036 40.7001 50.3619 40.9099C50.4258 40.685 50.5001 40.4602 50.5847 40.2354L51.7013 37.2427H52.2595L50.641 41.3623H50.0799Z" fill="black"></path> <path d="M53.0502 41.3623V37.2427H56.0391V37.7288H53.5973V38.9905H55.884V39.4739H53.5973V40.8761H56.1349V41.3623H53.0502Z" fill="black"></path> <path d="M57.1878 41.3623V37.2427H59.0206C59.3891 37.2427 59.6691 37.2801 59.8609 37.3551C60.0526 37.4282 60.2058 37.5583 60.3205 37.7457C60.4351 37.933 60.4925 38.14 60.4925 38.3667C60.4925 38.6589 60.3976 38.9053 60.2077 39.1058C60.0179 39.3062 59.7246 39.4336 59.328 39.4879C59.4727 39.5572 59.5827 39.6256 59.6578 39.6931C59.8176 39.8392 59.969 40.0218 60.1118 40.2411L60.8308 41.3623H60.1428L59.5958 40.5052C59.4361 40.2579 59.3045 40.0687 59.2011 39.9375C59.0977 39.8064 59.0046 39.7146 58.9219 39.6622C58.8411 39.6097 58.7584 39.5732 58.6738 39.5526C58.6118 39.5394 58.5103 39.5329 58.3693 39.5329H57.7348V41.3623H57.1878ZM57.7348 39.0608H58.9107C59.1607 39.0608 59.3561 39.0355 59.4972 38.9849C59.6381 38.9324 59.7453 38.85 59.8186 38.7376C59.8919 38.6234 59.9285 38.4997 59.9285 38.3667C59.9285 38.1719 59.8571 38.0117 59.7143 37.8861C59.5732 37.7606 59.3496 37.6979 59.0432 37.6979H57.7348V39.0608Z" fill="black"></path> <path d="M62.5859 41.3623V37.7288H61.224V37.2427H64.5004V37.7288H63.1329V41.3623H62.5859Z" fill="black"></path> <path d="M65.4462 41.3623V37.2427H65.9932V41.3623H65.4462Z" fill="black"></path> <path d="M67.063 40.0387L67.579 39.9937C67.6031 40.1998 67.66 40.3694 67.7483 40.5024C67.8387 40.6335 67.9772 40.7403 68.1653 40.8227C68.3533 40.9033 68.5648 40.9435 68.7997 40.9435C69.0085 40.9435 69.1925 40.9127 69.3525 40.8508C69.5124 40.789 69.6309 40.7047 69.7078 40.5979C69.7868 40.4893 69.8263 40.3712 69.8263 40.2438C69.8263 40.1146 69.7888 40.0021 69.7132 39.9066C69.6382 39.8092 69.5144 39.7277 69.3411 39.6621C69.2307 39.6191 68.9851 39.5526 68.6056 39.4627C68.2255 39.3708 67.9598 39.2846 67.8072 39.2041C67.6098 39.101 67.4626 38.9737 67.3649 38.8219C67.2685 38.6683 67.221 38.4968 67.221 38.3076C67.221 38.0998 67.2799 37.9058 67.3983 37.726C67.5168 37.5443 67.6901 37.4065 67.9176 37.3129C68.1445 37.2193 68.3975 37.1724 68.6759 37.1724C68.9824 37.1724 69.2521 37.2221 69.485 37.3213C69.7199 37.4187 69.9005 37.563 70.0264 37.7541C70.1522 37.9452 70.2198 38.1615 70.2298 38.4032L69.7051 38.4426C69.677 38.1821 69.5807 37.9854 69.4174 37.8524C69.2561 37.7194 69.0158 37.6529 68.6986 37.6529C68.3674 37.6529 68.1258 37.7138 67.9739 37.8356C67.8233 37.9555 67.7483 38.1007 67.7483 38.2712C67.7483 38.4192 67.8019 38.5409 67.9089 38.6364C68.014 38.732 68.2884 38.8303 68.7321 38.9315C69.1778 39.0308 69.483 39.1179 69.6489 39.1929C69.8892 39.3034 70.0672 39.4439 70.1816 39.6144C70.2961 39.783 70.3536 39.9778 70.3536 40.1989C70.3536 40.4181 70.2907 40.6251 70.1649 40.8199C70.0384 41.0128 69.857 41.1637 69.6201 41.2723C69.3852 41.3791 69.1202 41.4325 68.8251 41.4325C68.451 41.4325 68.1371 41.3782 67.8835 41.2695C67.6319 41.1609 67.4331 40.9979 67.2886 40.7805C67.1454 40.5614 67.0704 40.3141 67.063 40.0387Z" fill="black"></path> <path d="M71.4826 41.3623V37.2427H72.0294V41.3623H71.4826Z" fill="black"></path> <path d="M73.2802 41.3623V37.2427H73.841L76.0119 40.4771V37.2427H76.5366V41.3623H75.9758L73.8042 38.125V41.3623H73.2802Z" fill="black"></path> <path d="M79.6819 39.7464V39.2631L81.4326 39.2603V40.789C81.1642 41.0026 80.8865 41.1637 80.6007 41.2723C80.315 41.3791 80.0219 41.4325 79.7214 41.4325C79.3152 41.4325 78.9457 41.3463 78.6131 41.174C78.2819 40.9998 78.0323 40.7487 77.8629 40.4209C77.6936 40.0931 77.6093 39.7268 77.6093 39.3221C77.6093 38.9212 77.693 38.5475 77.8603 38.2009C78.0296 37.8524 78.2718 37.5939 78.5877 37.4253C78.9036 37.2567 79.267 37.1724 79.6785 37.1724C79.9777 37.1724 80.2474 37.2211 80.4883 37.3185C80.7306 37.4141 80.9206 37.548 81.0578 37.7203C81.195 37.8927 81.2994 38.1175 81.371 38.3948L80.8771 38.5297C80.8149 38.3198 80.7379 38.155 80.6462 38.0351C80.5539 37.9152 80.4221 37.8196 80.2514 37.7485C80.0801 37.6754 79.89 37.6389 79.6819 37.6389C79.4316 37.6389 79.2154 37.6772 79.0334 37.7541C78.8507 37.829 78.7035 37.9283 78.5904 38.0519C78.4793 38.1756 78.393 38.3114 78.3307 38.4594C78.2257 38.7142 78.1735 38.9905 78.1735 39.2884C78.1735 39.6556 78.2364 39.9628 78.3622 40.2101C78.49 40.4574 78.6754 40.641 78.9176 40.7609C79.1599 40.8808 79.4175 40.9407 79.6899 40.9407C79.9268 40.9407 80.1584 40.8958 80.3839 40.8059C80.6094 40.714 80.7808 40.6167 80.8972 40.5136V39.7464H79.6819Z" fill="black"></path> <path d="M84.4214 41.3623V37.2427H84.9822L87.1532 40.4771V37.2427H87.6778V41.3623H87.117L84.9454 38.125V41.3623H84.4214Z" fill="black"></path> <path d="M88.8998 41.3623V37.2427H91.8885V37.7288H89.4472V38.9905H91.734V39.4739H89.4472V40.8761H91.9849V41.3623H88.8998Z" fill="black"></path> <path d="M94.0809 41.3623V37.7288H92.7191V37.2427H95.9956V37.7288H94.6277V41.3623H94.0809Z" fill="black"></path> <path d="M97.5702 41.3623L96.4727 37.2427H97.0342L97.6632 39.9431C97.7308 40.2261 97.789 40.507 97.8379 40.7862C97.943 40.346 98.0052 40.0921 98.0239 40.0246L98.8103 37.2427H99.4701L100.062 39.3277C100.211 39.8448 100.318 40.331 100.384 40.7862C100.436 40.5258 100.505 40.227 100.59 39.8898L101.238 37.2427H101.788L100.655 41.3623H100.127L99.256 38.2234C99.183 37.9611 99.1395 37.8 99.1261 37.74C99.0833 37.9292 99.0425 38.0904 99.005 38.2234L98.1283 41.3623H97.5702Z" fill="black"></path> <path d="M102.423 39.3557C102.423 38.6719 102.608 38.137 102.976 37.7511C103.345 37.3633 103.82 37.1694 104.403 37.1694C104.784 37.1694 105.129 37.2603 105.435 37.442C105.741 37.6238 105.975 37.8776 106.134 38.2036C106.296 38.5277 106.377 38.8958 106.377 39.3079C106.377 39.7257 106.292 40.0995 106.123 40.4292C105.954 40.7589 105.714 41.009 105.404 41.1794C105.094 41.348 104.76 41.4324 104.4 41.4324C104.012 41.4324 103.664 41.3387 103.357 41.1514C103.051 40.964 102.818 40.7083 102.66 40.3842C102.502 40.0601 102.423 39.7173 102.423 39.3557ZM102.988 39.3642C102.988 39.8606 103.121 40.2521 103.388 40.5388C103.657 40.8235 103.993 40.9659 104.398 40.9659C104.809 40.9659 105.148 40.8216 105.413 40.5332C105.68 40.2447 105.813 39.8353 105.813 39.3051C105.813 38.9698 105.756 38.6775 105.641 38.4284C105.528 38.1773 105.362 37.9834 105.142 37.8467C104.924 37.7081 104.679 37.6388 104.406 37.6388C104.019 37.6388 103.685 37.7718 103.405 38.0378C103.127 38.3019 102.988 38.744 102.988 39.3642Z" fill="black"></path> <path d="M107.382 41.3623V37.2427H109.215C109.583 37.2427 109.863 37.2801 110.055 37.3551C110.247 37.4282 110.4 37.5583 110.514 37.7457C110.629 37.933 110.686 38.14 110.686 38.3667C110.686 38.6589 110.592 38.9053 110.402 39.1058C110.212 39.3062 109.919 39.4336 109.522 39.4879C109.667 39.5572 109.777 39.6256 109.852 39.6931C110.012 39.8392 110.163 40.0218 110.306 40.2411L111.025 41.3623H110.337L109.79 40.5052C109.63 40.2579 109.498 40.0687 109.395 39.9375C109.292 39.8064 109.199 39.7146 109.116 39.6622C109.035 39.6097 108.952 39.5732 108.868 39.5526C108.806 39.5394 108.704 39.5329 108.564 39.5329H107.929V41.3623H107.382ZM107.929 39.0608H109.105C109.355 39.0608 109.55 39.0355 109.691 38.9849C109.832 38.9324 109.939 38.85 110.012 38.7376C110.086 38.6234 110.123 38.4997 110.123 38.3667C110.123 38.1719 110.051 38.0117 109.908 37.8861C109.767 37.7606 109.544 37.6979 109.237 37.6979H107.929V39.0608Z" fill="black"></path> <path d="M111.813 41.3623V37.2427H112.36V39.2856L114.413 37.2427H115.154L113.42 38.9118L115.23 41.3623H114.508L113.037 39.2772L112.36 39.9347V41.3623H111.813Z" fill="black"></path> <path d="M63.5264 17.3869V26.8911H60.738V17.9414C60.738 16.3573 58.9454 14.6545 57.2325 14.6545C54.3246 14.6545 53.2491 16.8325 53.2491 17.9018V26.9307H50.4208C50.4208 26.9307 50.4208 18.6146 50.4208 18.0205C50.4208 16.9514 49.3452 14.6545 46.7559 14.6545C44.3659 14.6545 42.9318 16.7533 42.9318 18.1789C42.9318 19.367 42.9318 26.9307 42.9318 26.9307H40.0637V12.2785H42.892V14.2585C42.892 14.2585 44.6049 12.0012 47.5526 12.0012C51.2573 12.0012 52.6117 15.0505 52.6515 15.1297C52.6913 15.0109 54.4043 11.9617 57.7902 11.9617C61.0965 12.0012 63.5264 14.6545 63.5264 17.3869Z" fill="black"></path> <path d="M155.009 20.3972C155.05 20.1596 155.05 19.8824 155.05 19.6448C155.05 15.6451 151.902 12.0415 147.321 12.0415C143.139 12.0415 139.593 15.5659 139.593 19.6448C139.593 23.8821 143.139 27.3274 147.321 27.3274C151.384 27.3274 153.377 24.8325 154.253 23.0109L151.464 22.3772C150.588 23.7237 149.034 24.5949 147.321 24.5949C144.851 24.5949 142.78 22.7733 142.421 20.4368H155.009V20.3972ZM142.541 18.2192C143.099 16.358 145.21 14.7343 147.321 14.7343C149.552 14.7343 151.504 16.16 152.102 18.2192H142.541Z" fill="black"></path> <path d="M80.0346 12.2786L71.3106 31.881H68.1639L70.4346 26.8517L64.1008 12.2786H67.128L71.9879 23.3668L76.9274 12.2786H80.0346Z" fill="black"></path> <path d="M107.037 12.2785V13.7042C107.037 13.7042 105.085 11.9221 102.097 11.9221C97.8352 11.9221 94.3693 15.7238 94.3693 19.6047C94.3693 23.7231 97.7154 27.2872 102.097 27.2872C105.483 27.2872 107.037 25.5052 107.037 25.5052V26.8912H109.865V12.2785H107.037ZM102.137 24.5547C99.1495 24.5547 97.1579 22.1787 97.1579 19.6047C97.1579 17.1098 99.4286 14.6546 102.137 14.6546C104.726 14.6546 107.117 16.7534 107.117 19.6047C107.117 22.4559 105.125 24.5547 102.137 24.5547Z" fill="black"></path> <path d="M121.935 12.3578V14.9318C118.071 14.9318 115.402 17.5455 115.362 20.8323V26.8913H112.534V12.2786H115.362V15.7634C115.362 15.7634 116.756 12.3578 121.218 12.3578C121.536 12.3578 121.935 12.3578 121.935 12.3578Z" fill="black"></path> <path d="M134.813 12.2787V13.5459C134.813 13.5459 132.742 12.0015 130.193 12.0015C126.01 12.0015 122.743 15.6843 122.743 19.3672C122.743 24.4757 127.125 26.7726 130.193 26.7726C133.419 26.7726 134.893 25.1093 134.893 25.1093C134.893 25.1093 134.972 25.6241 134.972 25.8617C134.972 27.7626 133.897 30.5742 130.232 30.5742C127.962 30.5742 126.05 28.9902 125.611 26.8914H122.823C123.341 30.495 126.448 33.3066 130.232 33.3066C134.017 33.3066 137.124 30.5346 137.642 26.8914C137.681 26.6537 137.681 26.4162 137.722 26.2181V12.2787H134.813ZM130.193 23.9213C127.364 23.9213 125.611 21.5056 125.611 19.3672C125.611 16.8328 127.922 14.8527 130.193 14.8527C132.344 14.8527 134.774 16.4368 134.774 19.3672C134.774 22.0997 132.901 23.9213 130.193 23.9213Z" fill="black"></path> <path d="M93.4927 26.1391C93.4927 26.1391 92.3376 27.2875 90.1465 27.2875C86.8801 27.2875 84.6897 24.5946 84.6897 22.1394V14.8528H81.5825V12.2788H84.6897V7.80396H87.5178V12.2788H92.6166V14.8528H87.5178C87.5178 14.8528 87.5178 21.2286 87.5178 21.8622C87.5178 22.9314 88.3544 24.4759 90.1465 24.4759C91.5807 24.4759 92.6561 23.6838 92.6561 23.6838L93.4927 26.1391Z" fill="black"></path> <path d="M167 26.1391C167 26.1391 165.845 27.2875 163.654 27.2875C160.387 27.2875 158.196 24.5946 158.196 22.1394V14.8528H155.089V12.2788H158.196V7.80396H161.025V12.2788H166.124V14.8528H161.025C161.025 14.8528 161.025 21.2286 161.025 21.8622C161.025 22.9314 161.862 24.4759 163.654 24.4759C165.088 24.4759 166.163 23.6838 166.163 23.6838L167 26.1391Z" fill="black"></path> <path fill-rule="evenodd" clip-rule="evenodd" d="M15.1701 5.10132C6.99545 5.10132 0.36853 11.7057 0.36853 19.8526C0.36853 27.9994 6.99545 34.6038 15.1701 34.6038C23.3448 34.6038 29.9717 27.9994 29.9717 19.8526V19.8525H25.0382C25.0381 25.2837 20.6202 29.6865 15.1705 29.6865C9.72072 29.6865 5.30277 25.2836 5.30277 19.8524C5.30277 14.4212 9.72052 10.0184 15.1701 10.0182V5.10132Z" fill="#FC2C38"></path> <path fill-rule="evenodd" clip-rule="evenodd" d="M25.0375 0.20459L20.1037 5.10129V11.5077L16.4865 15.1125C16.0674 14.9972 15.626 14.9356 15.1701 14.9356C12.4453 14.9356 10.2363 17.1371 10.2363 19.8527C10.2363 22.5683 12.4453 24.7698 15.1701 24.7698C17.8951 24.7698 20.104 22.5683 20.104 19.8527C20.104 19.4261 20.0495 19.0122 19.947 18.6176L23.6417 14.9355H25.0375V14.9353H30.0204L34.9606 10.0182H25.0375V0.20459Z" fill="#FC2C38"></path> </svg> 